# xmcd
#
# Track frame offsets:
# 150
# 766
# 19587
# 49528
# 78462
# 108202
# 137969
# 153390
# 179049
# 192518
# 228747
# 267856
#
# Disc length: 3577 seconds
#
#
# Revision: 0
# Processed by: cddbd v1.5.2PL0 Copyright (c) Steve Scherf et al.
# Submitted via: FreeRIP 2.96 
#
DISCID=950df70c
DTITLE=Ingrid Noll - Die Apothekerin CD5v6
DYEAR=1997
DGENRE=Speech
TTITLE0=CD5 Fortsetzung
TTITLE1=46 Die Apothekerin
TTITLE2=47 Die Apothekerin
TTITLE3=48 Die Apothekerin
TTITLE4=49 Die Apothekerin
TTITLE5=50 Die Apothekerin
TTITLE6=51 Die Apothekerin
TTITLE7=52 Die Apothekerin
TTITLE8=53 Die Apothekerin
TTITLE9=54 Die Apothekerin
TTITLE10=55 Die Apothekerin
TTITLE11=zur Fortsetzung CD6 einlegen
EXTD=gelesen von Silvia Jost
EXTT0=
EXTT1=
EXTT2=
EXTT3=
EXTT4=
EXTT5=
EXTT6=
EXTT7=
EXTT8=
EXTT9=
EXTT10=
EXTT11=
PLAYORDER=
